{
    "asset": {
        "generator": "COLLADA2GLTF",
        "version": "2.0"
    },
    "scenes": [
        {
            "nodes": [
                0
            ]
        }
    ],
    "scene": 0,
    "nodes": [
        {
            "children": [
                1
            ],
            "matrix": [
                1.0,
                0.0,
                0.0,
                0.0,
                0.0,
                0.0,
                -1.0,
                0.0,
                0.0,
                1.0,
                0.0,
                0.0,
                0.0,
                0.0,
                0.0,
                1.0
            ],
            "name": "Z_UP"
        },
        {
            "mesh": 0,
            "matrix": [
                6.199696311881553e-11,
                -1.3808820247650149,
                0.0,
                0.0,
                1.3808820247650149,
                6.199696311881553e-11,
                0.0,
                0.0,
                0.0,
                0.0,
                1.3808820247650149,
                0.0,
                0.0,
                0.0,
                0.0,
                1.0
            ],
            "name": "Group56306"
        }
    ],
    "meshes": [
        {
            "primitives": [
                {
                    "attributes": {
                        "NORMAL": 1,
                        "POSITION": 2,
                        "TEXCOORD_0": 3
                    },
                    "indices": 0,
                    "mode": 4,
                    "material": 0
                }
            ],
            "name": "Group56306"
        }
    ],
    "accessors": [
        {
            "bufferView": 0,
            "byteOffset": 0,
            "componentType": 5123,
            "count": 59364,
            "max": [
                10276
            ],
            "min": [
                0
            ],
            "type": "SCALAR"
        },
        {
            "bufferView": 1,
            "byteOffset": 0,
            "componentType": 5126,
            "count": 10277,
            "max": [
                0.9999750256538392,
                0.9996299743652344,
                0.9999887943267822
            ],
            "min": [
                -0.9999790191650392,
                -0.999546229839325,
                -0.9999918341636658
            ],
            "type": "VEC3"
        },
        {
            "bufferView": 1,
            "byteOffset": 123324,
            "componentType": 5126,
            "count": 10277,
            "max": [
                1.470424771308899,
                3.9597761631011969,
                4.311169624328613
            ],
            "min": [
                -1.4681628942489625,
                -3.959115743637085,
                0.00093153485795483
            ],
            "type": "VEC3"
        },
        {
            "bufferView": 2,
            "byteOffset": 0,
            "componentType": 5126,
            "count": 10277,
            "max": [
                0.983709990978241,
                0.9980499744415284
            ],
            "min": [
                0.0019499999471008776,
                0.0019600391387939459
            ],
            "type": "VEC2"
        }
    ],
    "materials": [
        {
            "pbrMetallicRoughness": {
                "baseColorFactor": [
                    1.0,
                    1.0,
                    1.0,
                    1.0
                ],
                "baseColorTexture": {
                    "index": 0
                },
                "metallicFactor": 0.0
            },
            "emissiveFactor": [
                1.0,
                1.0,
                1.0
            ],
            "emissiveTexture": {
                "index": 1
            },
            "occlusionTexture": {
                "index": 0
            },
            "name": "defaultMat"
        }
    ],
    "textures": [
        {
            "sampler": 0,
            "source": 0
        },
        {
            "sampler": 0,
            "source": 0
        }
    ],
    "images": [
        {
            "uri": "data:image/jpeg;base64,"
        }
    ],
    "samplers": [
        {
            "magFilter": 9729,
            "minFilter": 9986,
            "wrapS": 10497,
            "wrapT": 10497
        }
    ],
    "bufferViews": [
        {
            "buffer": 0,
            "byteOffset": 328864,
            "byteLength": 118728,
            "target": 34963
        },
        {
            "buffer": 0,
            "byteOffset": 0,
            "byteLength": 246648,
            "byteStride": 12,
            "target": 34962
        },
        {
            "buffer": 0,
            "byteOffset": 246648,
            "byteLength": 82216,
            "byteStride": 8,
            "target": 34962
        }
    ],
    "buffers": [
        {
            "byteLength": 447592,
            "uri": "data:application/octet-stream;base64,"
        }
    ]
}
